# This file uses meters as units for non-parametric coordinates.

mtllib Exterior gate.mtl
g default
v -50.000000 166.666656 -50.000000
v 50.000000 166.666656 -50.000000
v -50.000000 83.333321 -50.000000
v 50.000000 83.333321 -50.000000
v -50.000000 -0.000015 -50.000000
v 50.000000 -0.000015 -50.000000
v -50.000000 -83.333351 -50.000000
v 50.000000 -83.333351 -50.000000
v -50.000000 -166.666687 -50.000000
v 50.000000 -166.666687 -50.000000
v -50.000000 -250.000000 -50.000000
v 50.000000 -250.000000 -50.000000
v 50.000000 166.666656 -179.478973
v -50.000000 166.666656 -179.478973
v -50.000000 225.002502 25.002501
v -25.002501 225.002502 50.000000
v -25.002501 250.000000 25.002501
v 25.002501 250.000000 25.002501
v 25.002501 225.002502 50.000000
v 50.000000 225.002502 25.002501
v -50.000000 -250.000000 25.002501
v -25.002501 -250.000000 50.000000
v -25.002501 -166.666656 50.000000
v -50.000000 -166.666656 25.002501
v 50.000000 -250.000000 25.002501
v 25.002501 -250.000000 50.000000
v 25.002501 -166.666656 50.000000
v 50.000000 -166.666656 25.002501
v -25.002501 -83.333321 50.000000
v -50.000000 -83.333328 25.002501
v 25.002501 -83.333321 50.000000
v 50.000000 -83.333328 25.002501
v -25.002501 0.000015 50.000000
v -50.000000 0.000008 25.002501
v 25.002501 0.000015 50.000000
v 50.000000 0.000008 25.002501
v -25.002501 83.333351 50.000000
v -50.000000 83.333344 25.002501
v 25.002501 83.333351 50.000000
v 50.000000 83.333344 25.002501
v -25.002501 166.666687 50.000000
v -50.000000 166.666687 25.002501
v 25.002501 166.666687 50.000000
v 50.000000 166.666687 25.002501
v -50.000000 225.002502 -50.000000
v -25.002501 250.000000 -50.000000
v 25.002501 250.000000 -50.000000
v 50.000000 225.002502 -50.000000
v -50.000000 225.002502 -179.478973
v -25.002501 250.000000 -179.478973
v 50.000000 225.002502 -179.478973
v 25.002501 250.000000 -179.478973
v -25.002501 250.000000 -275.691681
v -50.000000 225.002502 -275.691681
v 25.002501 250.000000 -275.691681
v 50.000000 225.002502 -275.691681
v 50.000000 166.666656 -275.691681
v -50.000000 166.666656 -275.691681
vt 0.397883 0.094740
vt 0.397883 0.001992
vt 0.481359 0.001992
vt 0.481359 0.094740
vt 0.370061 0.001992
vt 0.370061 0.094740
vt 0.481359 0.187489
vt 0.397883 0.187489
vt 0.370061 0.187489
vt 0.481359 0.280237
vt 0.397883 0.280237
vt 0.370061 0.280237
vt 0.481359 0.372985
vt 0.397883 0.372985
vt 0.370061 0.372985
vt 0.481359 0.465733
vt 0.397883 0.465733
vt 0.370061 0.465733
vt 0.481359 0.530660
vt 0.397883 0.530660
vt 0.370061 0.530660
vt 0.625466 0.465733
vt 0.625466 0.530660
vt 0.397883 0.558482
vt 0.481359 0.558482
vt 0.732549 0.465733
vt 0.732549 0.530660
vt 0.625466 0.558482
vt 0.732549 0.558482
vt 0.252990 0.001992
vt 0.336466 0.001992
vt 0.336466 0.094740
vt 0.252990 0.094740
vt 0.364288 0.001992
vt 0.364288 0.094740
vt 0.336466 0.187489
vt 0.252990 0.187489
vt 0.364288 0.187489
vt 0.336466 0.280237
vt 0.252990 0.280237
vt 0.364288 0.280237
vt 0.336466 0.372985
vt 0.252990 0.372985
vt 0.364288 0.372985
vt 0.336466 0.465733
vt 0.252990 0.465733
vt 0.364288 0.465733
vt 0.336466 0.530660
vt 0.252990 0.530660
vt 0.364288 0.530660
vt 0.336466 0.558482
vt 0.252990 0.558482
vt 0.108883 0.530660
vt 0.108883 0.465733
vt 0.108883 0.558482
vt 0.001800 0.530660
vt 0.001800 0.465733
vt 0.001800 0.558482
vt 0.495670 0.562088
vt 0.606968 0.562088
vt 0.606968 0.645565
vt 0.579146 0.673386
vt 0.523491 0.673386
vt 0.495670 0.645565
vt 0.723810 0.813279
vt 0.612512 0.813279
vt 0.612512 0.669171
vt 0.723810 0.669171
vt 0.612512 0.562088
vt 0.723810 0.562088
vt 0.729354 0.589910
vt 0.785008 0.589910
vt 0.785008 0.673386
vt 0.729354 0.673386
vt 0.729354 0.562088
vt 0.785008 0.562088
vt 0.785008 0.817494
vt 0.729354 0.817494
vt 0.785008 0.924577
vt 0.729354 0.924577
vt 0.790553 0.534267
vt 0.901851 0.534267
vt 0.901851 0.627015
vt 0.790553 0.627015
vt 0.901851 0.719763
vt 0.790553 0.719763
vt 0.901851 0.812512
vt 0.790553 0.812512
vt 0.901851 0.905260
vt 0.790553 0.905260
vt 0.901851 0.998008
vt 0.790553 0.998008
vt 0.425199 0.673386
vt 0.397377 0.645565
vt 0.397377 0.589910
vt 0.425199 0.562088
vt 0.490125 0.562088
vt 0.490125 0.673386
vt 0.738146 0.094740
vt 0.738146 0.001992
vt 0.793801 0.001992
vt 0.793801 0.094740
vt 0.793801 0.187489
vt 0.738146 0.187489
vt 0.793801 0.280237
vt 0.738146 0.280237
vt 0.793801 0.372985
vt 0.738146 0.372985
vt 0.793801 0.465733
vt 0.738146 0.465733
vt 0.793801 0.530660
vt 0.738146 0.530660
vn 0.000000 0.000000 -1.000000
vn 0.000000 0.000000 -1.000000
vn 0.000000 0.000000 -1.000000
vn 0.000000 0.000000 -1.000000
vn 0.000000 0.000000 -1.000000
vn 0.000000 0.000000 -1.000000
vn 0.000000 0.000000 -1.000000
vn 0.000000 0.000000 -1.000000
vn 0.000000 0.000000 -1.000000
vn 0.000000 0.000000 -1.000000
vn 0.000000 0.000000 -1.000000
vn 0.000000 0.000000 -1.000000
vn 0.000000 -1.000000 0.000000
vn 0.000000 -1.000000 0.000000
vn 0.000000 -1.000000 0.000000
vn 0.000000 -1.000000 0.000000
vn 0.000000 -1.000000 0.000000
vn 0.000000 -1.000000 0.000000
vn 0.000000 -1.000000 0.000000
vn 0.000000 -1.000000 0.000000
vn 0.000000 -1.000000 0.000000
vn 0.000000 -1.000000 0.000000
vn 0.000000 0.000000 -1.000000
vn 0.000000 0.000000 -1.000000
vn 0.000000 0.000000 -1.000000
vn 0.000000 0.000000 -1.000000
vn 0.000000 0.000000 -1.000000
vn 0.000000 0.000000 -1.000000
vn -0.707107 0.707107 0.000000
vn -0.707107 0.707107 0.000000
vn -0.707107 0.707107 0.000000
vn -0.707107 0.707107 0.000000
vn -0.707107 0.000000 0.707107
vn -0.707107 0.000000 0.707107
vn -0.707107 0.000000 0.707107
vn -0.707107 0.000000 0.707107
vn 0.000000 0.707107 0.707107
vn 0.000000 0.707107 0.707107
vn 0.000000 0.707107 0.707107
vn 0.000000 0.707107 0.707107
vn 0.707107 0.707107 0.000000
vn 0.707107 0.707107 0.000000
vn 0.707107 0.707107 0.000000
vn 0.707107 0.707107 0.000000
vn 0.707107 0.000000 0.707107
vn 0.707107 0.000000 0.707107
vn 0.707107 0.000000 0.707107
vn 0.707107 0.000000 0.707107
vn -0.707107 0.000000 0.707107
vn -0.707107 0.000000 0.707107
vn -0.707107 0.000000 0.707107
vn -0.707107 0.000000 0.707107
vn -0.707107 0.000000 0.707107
vn -0.707107 0.000000 0.707107
vn 0.707107 0.000000 0.707107
vn 0.707107 0.000000 0.707107
vn 0.707107 0.000000 0.707107
vn 0.707107 0.000000 0.707107
vn 0.707107 0.000000 0.707107
vn 0.707107 0.000000 0.707107
vn -0.707107 0.000000 0.707107
vn -0.707107 0.000000 0.707107
vn 0.707107 0.000000 0.707107
vn 0.707107 0.000000 0.707107
vn -0.707107 0.000000 0.707107
vn -0.707107 0.000000 0.707107
vn 0.707107 0.000000 0.707107
vn 0.707107 0.000000 0.707107
vn -0.707107 0.707107 0.000000
vn -0.707107 0.707107 0.000000
vn 0.707107 0.707107 0.000000
vn 0.707107 0.707107 0.000000
vn 0.000000 0.000000 1.000000
vn 0.000000 0.000000 1.000000
vn 0.000000 0.000000 1.000000
vn 0.000000 0.000000 1.000000
vn 0.000000 0.000000 1.000000
vn 0.000000 0.000000 1.000000
vn 0.000000 0.000000 1.000000
vn 0.000000 0.000000 1.000000
vn 0.000000 0.000000 1.000000
vn 0.000000 0.000000 1.000000
vn 0.000000 0.000000 1.000000
vn 0.000000 0.000000 1.000000
vn 0.000000 0.000000 1.000000
vn 0.000000 0.000000 1.000000
vn 0.000000 1.000000 0.000000
vn 0.000000 1.000000 0.000000
vn 0.000000 1.000000 0.000000
vn 0.000000 1.000000 0.000000
vn 1.000000 0.000000 0.000000
vn 1.000000 0.000000 0.000000
vn 1.000000 0.000000 0.000000
vn 1.000000 0.000000 0.000000
vn 1.000000 0.000000 0.000000
vn 1.000000 0.000000 0.000000
vn 1.000000 0.000000 0.000000
vn 1.000000 0.000000 0.000000
vn 1.000000 0.000000 0.000000
vn 1.000000 0.000000 0.000000
vn 1.000000 0.000000 0.000000
vn 1.000000 0.000000 0.000000
vn 1.000000 0.000000 0.000000
vn 1.000000 0.000000 0.000000
vn -1.000000 0.000000 0.000000
vn -1.000000 0.000000 0.000000
vn -1.000000 0.000000 0.000000
vn -1.000000 0.000000 0.000000
vn -1.000000 0.000000 0.000000
vn -1.000000 0.000000 0.000000
vn -1.000000 0.000000 0.000000
vn -1.000000 0.000000 0.000000
vn -1.000000 0.000000 0.000000
vn -1.000000 0.000000 0.000000
vn -1.000000 0.000000 0.000000
vn -1.000000 0.000000 0.000000
vn -1.000000 0.000000 0.000000
vn -1.000000 0.000000 0.000000
vn 0.000000 1.000000 0.000000
vn 0.000000 1.000000 0.000000
vn 1.000000 0.000000 0.000000
vn 1.000000 0.000000 0.000000
vn -1.000000 0.000000 0.000000
vn -1.000000 0.000000 0.000000
vn -0.577350 0.577350 0.577350
vn -0.577350 0.577350 0.577350
vn -0.577350 0.577350 0.577350
vn 0.577350 0.577350 0.577350
vn 0.577350 0.577350 0.577350
vn 0.577350 0.577350 0.577350
vn -0.707107 0.707107 0.000000
vn -0.707107 0.707107 0.000000
vn 0.000000 1.000000 0.000000
vn 0.000000 1.000000 0.000000
vn 0.707107 0.707107 0.000000
vn 0.707107 0.707107 0.000000
vn 1.000000 0.000000 0.000000
vn 1.000000 0.000000 0.000000
vn 0.000000 -1.000000 0.000000
vn 0.000000 -1.000000 0.000000
vn -1.000000 0.000000 0.000000
vn -1.000000 0.000000 0.000000
s 1
g pCube1
usemtl initialShadingGroup
f 1/81/1 2/82/2 4/83/3 3/84/4
f 3/84/4 4/83/3 6/85/5 5/86/6
f 5/86/6 6/85/5 8/87/7 7/88/8
f 7/88/8 8/87/7 10/89/9 9/90/10
f 9/90/10 10/89/9 12/91/11 11/92/12
s off
f 11/59/13 12/60/14 25/61/15 26/62/16 22/63/17 21/64/18
s 2
f 2/65/19 1/66/20 14/67/21 13/68/22
s off
f 54/93/23 53/94/24 55/95/25 56/96/26 57/97/27 58/98/28
s 3
f 15/48/29 17/51/30 46/52/31 45/49/32
s 4
f 16/50/33 15/48/34 42/45/35 41/47/36
s off
f 17/71/37 16/75/38 19/76/39 18/72/40
s 5
f 18/24/41 20/20/42 48/19/43 47/25/44
s 6
f 20/20/45 19/21/46 43/18/47 44/17/48
s 4
f 21/31/49 22/34/50 23/35/51 24/32/52
f 24/32/52 23/35/51 29/38/53 30/36/54
s 6
f 26/5/55 25/2/56 28/1/57 27/6/58
f 27/6/58 28/1/57 32/8/59 31/9/60
s 4
f 30/36/54 29/38/53 33/41/61 34/39/62
s 6
f 31/9/60 32/8/59 36/11/63 35/12/64
s 4
f 34/39/62 33/41/61 37/44/65 38/42/66
s 6
f 35/12/64 36/11/63 40/14/67 39/15/68
s 4
f 38/42/66 37/44/65 41/47/36 42/45/35
s 6
f 39/15/68 40/14/67 44/17/48 43/18/47
s 3
f 45/49/32 46/52/31 50/55/69 49/53/70
s 5
f 47/25/44 48/19/43 51/23/71 52/28/72
s 9
f 23/99/73 22/100/74 26/101/75 27/102/76
f 23/99/73 27/102/76 31/103/77 29/104/78
f 29/104/78 31/103/77 35/105/79 33/106/80
f 33/106/80 35/105/79 39/107/81 37/108/82
f 37/108/82 39/107/81 43/109/83 41/110/84
f 41/110/84 43/109/83 19/111/85 16/112/86
s 10
f 17/71/87 18/72/88 47/73/89 46/74/90
s 11
f 28/1/91 25/2/92 12/3/93 10/4/94
f 28/1/91 10/4/94 8/7/95 32/8/96
f 32/8/96 8/7/95 6/10/97 36/11/98
f 36/11/98 6/10/97 4/13/99 40/14/100
f 40/14/100 4/13/99 2/16/101 44/17/102
f 44/17/102 2/16/101 48/19/103 20/20/104
s 12
f 11/30/105 21/31/106 24/32/107 9/33/108
f 9/33/108 24/32/107 30/36/109 7/37/110
f 7/37/110 30/36/109 34/39/111 5/40/112
f 5/40/112 34/39/111 38/42/113 3/43/114
f 3/43/114 38/42/113 42/45/115 1/46/116
f 1/46/116 42/45/115 15/48/117 45/49/118
s 10
f 46/74/90 47/73/89 52/77/119 50/78/120
s 11
f 48/19/103 2/16/101 13/22/121 51/23/122
s 12
f 1/46/116 45/49/118 49/53/123 14/54/124
s off
f 15/48/125 16/50/126 17/51/127
f 18/24/128 19/21/129 20/20/130
s 3
f 49/53/70 50/55/69 53/58/131 54/56/132
s 10
f 50/78/120 52/77/119 55/79/133 53/80/134
s 5
f 52/28/72 51/23/71 56/27/135 55/29/136
s 11
f 51/23/122 13/22/121 57/26/137 56/27/138
s 2
f 13/68/22 14/67/21 58/69/139 57/70/140
s 12
f 14/54/124 49/53/123 54/56/141 58/57/142
